<svg width="130.65" height="21.211" viewBox="0 0 130.65 21.211" xmlns="http://www.w3.org/2000/svg"><g id="svgGroup" stroke-linecap="round" fill-rule="evenodd" font-size="9pt" stroke="#000" stroke-width="0.25mm" fill="#000" style="stroke:#000;stroke-width:0.25mm;fill:#000"><path d="M 19.307 16.934 L 19.307 9.17 A 2.956 2.956 0 0 1 20.2 7.009 A 3.659 3.659 0 0 1 20.259 6.951 Q 21.211 6.035 22.544 6.035 L 28.872 6.035 A 4.28 4.28 0 0 1 30.593 6.38 A 4.138 4.138 0 0 1 31.077 6.629 A 4.506 4.506 0 0 1 32.659 8.225 A 4.279 4.279 0 0 1 33.252 10.445 L 33.252 10.869 A 4.176 4.176 0 0 1 32.659 13.059 Q 32.065 14.048 31.077 14.641 A 4.195 4.195 0 0 1 28.91 15.234 A 4.963 4.963 0 0 1 28.872 15.235 L 24.155 15.235 L 24.155 12.158 L 28.901 12.158 Q 29.429 12.158 29.802 11.778 A 1.269 1.269 0 0 0 30.176 10.859 A 1.598 1.598 0 0 0 30.176 10.855 L 30.176 10.445 A 1.367 1.367 0 0 0 30.076 9.917 A 1.283 1.283 0 0 0 29.802 9.507 A 1.241 1.241 0 0 0 29.297 9.187 A 1.271 1.271 0 0 0 28.901 9.126 L 22.397 9.126 L 22.397 16.919 A 1.183 1.183 0 0 0 22.734 17.769 Q 23.071 18.12 23.555 18.12 L 32.183 18.12 L 32.183 21.211 L 23.555 21.211 A 4.086 4.086 0 0 1 21.416 20.633 A 4.34 4.34 0 0 1 19.878 19.08 A 4.165 4.165 0 0 1 19.307 16.934 Z M 81.768 16.934 L 81.768 9.17 A 2.956 2.956 0 0 1 82.661 7.009 A 3.659 3.659 0 0 1 82.72 6.951 Q 83.672 6.035 85.005 6.035 L 91.333 6.035 A 4.28 4.28 0 0 1 93.053 6.38 A 4.138 4.138 0 0 1 93.538 6.629 A 4.506 4.506 0 0 1 95.12 8.225 A 4.279 4.279 0 0 1 95.713 10.445 L 95.713 10.869 A 4.176 4.176 0 0 1 95.12 13.059 Q 94.526 14.048 93.538 14.641 A 4.195 4.195 0 0 1 91.371 15.234 A 4.963 4.963 0 0 1 91.333 15.235 L 86.616 15.235 L 86.616 12.158 L 91.362 12.158 Q 91.89 12.158 92.263 11.778 A 1.269 1.269 0 0 0 92.637 10.859 A 1.598 1.598 0 0 0 92.637 10.855 L 92.637 10.445 A 1.367 1.367 0 0 0 92.537 9.917 A 1.283 1.283 0 0 0 92.263 9.507 A 1.241 1.241 0 0 0 91.758 9.187 A 1.271 1.271 0 0 0 91.362 9.126 L 84.858 9.126 L 84.858 16.919 A 1.183 1.183 0 0 0 85.195 17.769 Q 85.532 18.12 86.016 18.12 L 94.644 18.12 L 94.644 21.211 L 86.016 21.211 A 4.086 4.086 0 0 1 83.877 20.633 A 4.34 4.34 0 0 1 82.339 19.08 A 4.165 4.165 0 0 1 81.768 16.934 Z M 116.396 10.664 L 116.396 10.298 A 4.036 4.036 0 0 1 116.99 8.145 A 4.422 4.422 0 0 1 118.572 6.607 A 4.298 4.298 0 0 1 120.759 6.035 L 120.762 6.035 L 129.668 6.035 L 129.668 9.126 L 120.762 9.126 A 1.282 1.282 0 0 0 119.861 9.47 A 1.185 1.185 0 0 0 119.596 9.817 A 1.072 1.072 0 0 0 119.487 10.298 L 119.487 10.664 Q 119.487 11.162 119.861 11.514 A 1.267 1.267 0 0 0 120.762 11.865 L 126.299 11.865 Q 127.5 11.865 128.489 12.444 A 4.422 4.422 0 0 1 130.063 13.99 A 4.074 4.074 0 0 1 130.649 16.143 L 130.649 16.934 A 4.085 4.085 0 0 1 130.063 19.08 A 4.403 4.403 0 0 1 128.489 20.633 A 4.256 4.256 0 0 1 126.299 21.211 L 117.085 21.211 L 117.085 18.12 L 126.299 18.12 A 1.267 1.267 0 0 0 127.2 17.769 A 1.188 1.188 0 0 0 127.483 17.374 A 1.135 1.135 0 0 0 127.573 16.919 L 127.573 16.157 A 1.137 1.137 0 0 0 127.228 15.321 A 1.384 1.384 0 0 0 127.2 15.293 A 1.267 1.267 0 0 0 126.299 14.942 L 120.762 14.942 Q 119.561 14.942 118.572 14.363 Q 117.583 13.784 116.99 12.81 A 4.047 4.047 0 0 1 116.396 10.664 Z M 64.307 21.211 L 64.307 9.112 A 2.935 2.935 0 0 1 65.187 6.972 A 3.601 3.601 0 0 1 65.222 6.936 A 3.029 3.029 0 0 1 67.417 6.035 A 3.616 3.616 0 0 1 67.427 6.035 L 72.773 6.035 A 5.291 5.291 0 0 1 75.527 6.775 Q 76.772 7.515 77.512 8.76 A 5.291 5.291 0 0 1 78.252 11.514 L 78.252 21.211 L 75.161 21.211 L 75.161 11.558 Q 75.161 10.532 74.465 9.815 Q 73.77 9.097 72.773 9.097 L 67.397 9.097 L 67.397 21.211 L 64.307 21.211 Z M 99.082 21.211 L 99.082 9.112 A 2.935 2.935 0 0 1 99.962 6.972 A 3.601 3.601 0 0 1 99.998 6.936 A 3.029 3.029 0 0 1 102.192 6.035 A 3.616 3.616 0 0 1 102.202 6.035 L 107.549 6.035 A 5.291 5.291 0 0 1 110.303 6.775 Q 111.548 7.515 112.288 8.76 A 5.291 5.291 0 0 1 113.027 11.514 L 113.027 21.211 L 109.937 21.211 L 109.937 11.558 Q 109.937 10.532 109.241 9.815 Q 108.545 9.097 107.549 9.097 L 102.173 9.097 L 102.173 21.211 L 99.082 21.211 Z M 0 3.457 L 0 0.381 L 16.963 0.381 L 16.963 3.457 L 10.034 3.457 L 10.034 21.211 L 6.929 21.211 L 6.929 3.457 L 0 3.457 Z M 36.621 21.211 L 36.621 10.283 A 4.009 4.009 0 0 1 37.214 8.145 A 4.422 4.422 0 0 1 38.796 6.607 A 4.298 4.298 0 0 1 40.984 6.035 L 40.986 6.035 L 44.37 6.035 L 44.37 9.112 L 40.986 9.112 A 1.253 1.253 0 0 0 40.085 9.47 A 1.19 1.19 0 0 0 39.776 9.944 A 1.214 1.214 0 0 0 39.712 10.342 L 39.712 21.211 L 36.621 21.211 Z M 47.153 21.211 L 47.153 10.283 A 4.009 4.009 0 0 1 47.747 8.145 A 4.422 4.422 0 0 1 49.329 6.607 A 4.298 4.298 0 0 1 51.516 6.035 L 51.519 6.035 L 54.902 6.035 L 54.902 9.112 L 51.519 9.112 A 1.253 1.253 0 0 0 50.618 9.47 A 1.19 1.19 0 0 0 50.308 9.944 A 1.214 1.214 0 0 0 50.244 10.342 L 50.244 21.211 L 47.153 21.211 Z M 57.686 21.211 L 57.686 6.035 L 60.791 6.035 L 60.791 21.211 L 57.686 21.211 Z M 57.873 0.574 A 1.834 1.834 0 0 0 57.334 1.905 A 2.231 2.231 0 0 0 57.334 1.929 A 1.833 1.833 0 0 0 57.891 3.252 A 2.2 2.2 0 0 0 57.908 3.269 A 1.834 1.834 0 0 0 59.238 3.809 A 2.231 2.231 0 0 0 59.263 3.809 A 1.833 1.833 0 0 0 60.586 3.252 A 2.2 2.2 0 0 0 60.603 3.235 A 1.834 1.834 0 0 0 61.143 1.905 A 2.231 2.231 0 0 0 61.142 1.88 A 1.833 1.833 0 0 0 60.586 0.557 A 2.2 2.2 0 0 0 60.568 0.54 A 1.834 1.834 0 0 0 59.238 0 A 2.231 2.231 0 0 0 59.214 0 A 1.833 1.833 0 0 0 57.891 0.557 A 2.2 2.2 0 0 0 57.873 0.574 Z" vector-effect="non-scaling-stroke"/></g></svg>